<?xml version="1.0" encoding="utf-8"?>
<!-- Generator: Adobe Illustrator 24.3.0, SVG Export Plug-In . SVG Version: 6.00 Build 0)  -->
<svg version="1.1" id="Layer_1" xmlns="http://www.w3.org/2000/svg" xmlns:xlink="http://www.w3.org/1999/xlink" x="0px" y="0px"
	 viewBox="0 0 512 512" style="enable-background:new 0 0 512 512;" xml:space="preserve">
<style type="text/css">
	.st0{fill:#FFFFFF;stroke:#000000;stroke-miterlimit:10;}
	.st1{fill:#FFFFFF;stroke:#FFFFFF;stroke-miterlimit:10;}
</style>
<g>
	<g>
		<g>
			<path class="st0" d="M476,148H36c-8.8,0-16-7.2-16-16s7.2-16,16-16h440c8.8,0,16,7.2,16,16S484.8,148,476,148z"/>
		</g>
	</g>
</g>
<g>
	<g>
		<g>
			<path class="st1" d="M252,276H36c-8.8,0-16-7.2-16-16s7.2-16,16-16h216c8.8,0,16,7.2,16,16C268,268.8,260.8,276,252,276z"/>
		</g>
	</g>
</g>
<g>
	<g>
		<g>
			<path class="st1" d="M252,404H36c-8.8,0-16-7.2-16-16s7.2-16,16-16h216c8.8,0,16,7.2,16,16S260.8,404,252,404z"/>
		</g>
	</g>
</g>
</svg>
